<svg width="16" height="16" viewBox="0 0 16 16" fill="none" xmlns="http://www.w3.org/2000/svg">
<rect width="16" height="16" transform="translate(0.000976562)" fill="white" fill-opacity="0.01" style="mix-blend-mode:multiply"/>
<path d="M8.87098 15L8.00098 14.5L10.001 11H13.001C13.2662 11 13.5205 10.8946 13.7081 10.7071C13.8956 10.5196 14.001 10.2652 14.001 10V4C14.001 3.73478 13.8956 3.48043 13.7081 3.29289C13.5205 3.10536 13.2662 3 13.001 3H3.00098C2.73576 3 2.48141 3.10536 2.29387 3.29289C2.10633 3.48043 2.00098 3.73478 2.00098 4V10C2.00098 10.2652 2.10633 10.5196 2.29387 10.7071C2.48141 10.8946 2.73576 11 3.00098 11H7.50098V12H3.00098C2.47054 12 1.96184 11.7893 1.58676 11.4142C1.21169 11.0391 1.00098 10.5304 1.00098 10V4C1.00098 3.46957 1.21169 2.96086 1.58676 2.58579C1.96184 2.21071 2.47054 2 3.00098 2H13.001C13.5314 2 14.0401 2.21071 14.4152 2.58579C14.7903 2.96086 15.001 3.46957 15.001 4V10C15.001 10.5304 14.7903 11.0391 14.4152 11.4142C14.0401 11.7893 13.5314 12 13.001 12H10.581L8.87098 15Z" fill="#B7B7B7"/>
</svg>
