<svg width="27" height="28" viewBox="0 0 27 28" fill="none" xmlns="http://www.w3.org/2000/svg">
<path d="M13.5 27.288C6.03529 27.288 0 21.2403 0 13.7602C0 6.28013 6.03529 0.232422 13.5 0.232422C20.9647 0.232422 27 6.28013 27 13.7602C27 21.2403 20.9647 27.288 13.5 27.288ZM13.5 1.82393C6.90882 1.82393 1.58824 7.15546 1.58824 13.7602C1.58824 20.3649 6.90882 25.6965 13.5 25.6965C20.0912 25.6965 25.4118 20.3649 25.4118 13.7602C25.4118 7.15546 20.0912 1.82393 13.5 1.82393Z" fill="#00CB2F"/>
<path d="M11.9118 19.6488L5.00293 12.7258L6.11469 11.6117L11.9118 17.4207L20.8853 8.42871L21.997 9.54276L11.9118 19.6488Z" fill="#00CB2F"/>
</svg>
