<?xml version="1.0" encoding="UTF-8"?>
<svg id="_레이어_2" data-name="레이어 2" xmlns="http://www.w3.org/2000/svg" viewBox="0 0 332.71 307.13">
  <defs>
    <style>
      .cls-1, .cls-2 {
        fill: #fff;
      }

      .cls-3 {
        fill: none;
        stroke-linecap: round;
      }

      .cls-3, .cls-2 {
        stroke: #6046cf;
        stroke-miterlimit: 10;
        stroke-width: 9.59px;
      }

      .cls-4 {
        fill: #6046cf;
      }
    </style>
  </defs>
  <g id="_레이어_3" data-name="레이어 3">
    <g>
      <path class="cls-2" d="M75.01,174.68s-32.66,.19-34.56,3.03c-1.89,2.84-10.89,30.77-10.18,57.04,.71,26.27,7.34,61.78,10.18,65.8,2.84,4.02,240.48,0,240.48,0,0,0,20.83-20.12,21.3-64.38,.47-44.26-4.73-58.23-6.15-58.94-1.42-.71-51.12,.24-51.12,.24l-169.94-2.8Z"/>
      <g>
        <g>
          <path class="cls-1" d="M313.69,87.1c14.66,32.37,15.07,44.67,13.73,53.97-1.83,12.56-6.56,17.25-8.52,18.93-10.07,8.61-26.01,5.17-32.2,2.84-5.62-2.11-10.58-6.06-14.78-11.53-11.79-15.35-17.65-42.64-15.51-74.62L166.41,4.79c1.35,.06,7.38,.02,13.78,.42,30.98,1.91,52.87,16.25,65.8,30.3,2.42-1.89,7.39-5.2,14.2-5.69,7.08-.5,12.45,2.32,15.16,3.79,16.3,8.85,29.63,34.25,38.34,53.49Z"/>
          <path class="cls-1" d="M271.92,151.31c.14,1.77,.84,13.8-8.4,22.9-7.06,6.92-15.54,7.86-17.99,8.04h-4.38l30.77-30.94Z"/>
          <path class="cls-1" d="M271.92,151.31l-30.77,30.94c2.65-7.33,1.89-14.52,1.53-17.04l-76.22,9.47h-.22l-76.21-9.47c-.36,2.57-1.15,9.95,1.66,17.4l-30.9-31.3c11.79-15.35,17.65-42.64,15.51-74.62L166.31,4.79h.11l90,71.89c-2.14,31.98,3.72,59.27,15.51,74.62Z"/>
          <path class="cls-1" d="M242.68,165.21c.35,2.52,1.12,9.71-1.53,17.04-.99,2.75-2.47,5.51-4.62,8.05-7.82,9.23-19.79,9.92-29.34,10.42-6.7,.34-13.75-.26-22.25-3.31-14.11-5.08-17.63-18.99-18.47-22.73l76.22-9.47Z"/>
          <path class="cls-1" d="M166.31,4.79L76.31,76.69c2.14,31.98-3.72,59.27-15.51,74.62-4.22,5.47-9.17,9.43-14.79,11.53-6.18,2.32-22.12,5.76-32.19-2.84-1.97-1.67-6.69-6.37-8.52-18.93-1.35-9.3-.93-21.6,13.73-53.97,8.71-19.24,22.04-44.64,38.34-53.49,2.69-1.47,8.06-4.29,15.15-3.79,6.81,.49,11.79,3.8,14.21,5.69,12.92-14.05,34.81-28.4,65.79-30.3,6.41-.39,12.44-.35,13.79-.42Z"/>
          <path class="cls-1" d="M90.03,165.21l76.21,9.47c-.83,3.74-4.35,17.65-18.46,22.73-8.51,3.06-15.55,3.65-22.25,3.31-9.55-.5-21.54-1.18-29.35-10.42-2.06-2.44-3.49-5.07-4.48-7.69-2.81-7.46-2.02-14.84-1.66-17.4Z"/>
          <path class="cls-1" d="M60.8,151.31l30.9,31.3-4.51-.36c-5.46-.4-13.6-3.73-17.99-8.04-9.26-9.1-8.54-21.13-8.4-22.9Z"/>
        </g>
        <g>
          <path class="cls-3" d="M166.41,4.79c1.35,.06,7.38,.02,13.78,.42,30.98,1.91,52.87,16.25,65.8,30.3,2.42-1.89,7.39-5.2,14.2-5.69,7.08-.5,12.45,2.32,15.16,3.79,16.3,8.85,29.63,34.25,38.34,53.49,14.66,32.37,15.07,44.67,13.73,53.97-1.83,12.56-6.56,17.25-8.52,18.93-10.07,8.61-26.01,5.17-32.2,2.84-5.62-2.11-10.58-6.06-14.78-11.53-11.79-15.35-17.65-42.64-15.51-74.62"/>
          <path class="cls-3" d="M166.47,174.68c.84,3.74,4.36,17.65,18.47,22.73,8.5,3.06,15.55,3.65,22.25,3.31,9.55-.5,21.53-1.18,29.34-10.42,2.15-2.55,3.63-5.3,4.62-8.05,2.65-7.33,1.89-14.52,1.53-17.04"/>
          <path class="cls-3" d="M241.15,182.25h4.38c2.45-.18,10.93-1.12,17.99-8.04,9.25-9.1,8.54-21.13,8.4-22.9"/>
          <path class="cls-3" d="M166.31,4.79c-1.35,.06-7.38,.02-13.79,.42-30.98,1.91-52.87,16.25-65.79,30.3-2.42-1.89-7.4-5.2-14.21-5.69-7.08-.5-12.45,2.32-15.15,3.79-16.31,8.85-29.63,34.25-38.34,53.49-14.66,32.37-15.08,44.67-13.73,53.97,1.83,12.56,6.55,17.25,8.52,18.93,10.07,8.61,26.01,5.17,32.19,2.84,5.62-2.11,10.58-6.06,14.79-11.53,11.79-15.35,17.65-42.64,15.51-74.62"/>
          <path class="cls-3" d="M90.03,165.21c-.36,2.57-1.15,9.95,1.66,17.4,.99,2.62,2.43,5.25,4.48,7.69,7.82,9.23,19.8,9.92,29.35,10.42,6.7,.34,13.74-.26,22.25-3.31,14.11-5.08,17.63-18.99,18.46-22.73"/>
          <path class="cls-3" d="M60.8,151.31c-.14,1.77-.85,13.8,8.4,22.9,4.39,4.31,12.53,7.64,17.99,8.04l4.51,.36"/>
        </g>
      </g>
      <path class="cls-4" d="M168.6,174.64c-14.04,.69-30.66-7.24-31.24-16.8-.3-4.91,3.7-8.91,5.92-11.12,8.02-8.02,19.25-7.71,24.38-7.57,5.18,.14,14.85,.41,22.01,7.57,2.05,2.05,6.25,6.25,5.92,11.36-.59,9.07-15.16,15.99-26.98,16.57Z"/>
      <ellipse class="cls-4" cx="121.3" cy="110.04" rx="11.07" ry="17.09"/>
      <ellipse class="cls-4" cx="211.41" cy="110.04" rx="11.07" ry="17.09"/>
      <rect class="cls-4" x="60.79" y="210.11" width="66.04" height="66.04" rx="11.58" ry="11.58"/>
      <line class="cls-3" x1="144.93" y1="219.16" x2="264.22" y2="219.16"/>
      <line class="cls-3" x1="145.12" y1="245.08" x2="247.17" y2="245.08"/>
      <line class="cls-3" x1="144.58" y1="271" x2="246.62" y2="271"/>
    </g>
  </g>
</svg>