<?xml version="1.0" encoding="UTF-8"?>
<svg id="_레이어_2" data-name="레이어 2" xmlns="http://www.w3.org/2000/svg" viewBox="0 0 355.44 236.46">
  <defs>
    <style>
      .cls-1 {
        fill: #fff;
      }

      .cls-2 {
        stroke-linecap: round;
      }

      .cls-2, .cls-3 {
        fill: none;
        stroke: #6046cf;
        stroke-miterlimit: 10;
        stroke-width: 9.59px;
      }

      .cls-4 {
        fill: #6046cf;
      }
    </style>
  </defs>
  <g id="_레이어_3" data-name="레이어 3">
    <g>
      <g>
        <g>
          <path class="cls-1" d="M348.51,123.96c.6,1.53,2.18,5.59,2.13,11.01-.01,1.47-.1,9.76-4.97,15.61-8.24,9.93-27.18,9.3-37.28,1.07-.93-.76-1.89-1.67-2.83-2.67v-.1h-.09c-4.84-5.16-9.53-12.82-10.57-16.4-5.58-19.21-6.45-34.42-12.08-54.67l-198.46,4.97c-.15,11.8-1.32,32.8-8.17,51.48-1.68,4.6-3.69,8.97-6.81,13.54-.54,.8-1.13,1.65-1.77,2.55h-.01c-3.79,5.34-9.3,11.95-18.39,15.16-1.08,.38-17.22,5.79-30.54-3.9-9.93-7.23-12.2-18.46-13.13-23.43-3.21-17.11,4.1-30.82,14.91-50.42,0,0,15.81-28.65,44.73-49.35,4.02-2.88,9.69-6.47,16.69-5.68,6.64,.73,11.3,5.08,13.48,7.46,1.11-1.1,2.81-2.74,4.97-4.62C129.64,9.99,165.48,6.85,179.88,5.39c11.88-1.2,37.63-2.02,63.19,12.78,8.47,4.91,15.12,10.49,20.24,15.62,2.48-2.6,7.33-6.84,14.2-7.82,6.38-.89,12.57,1.29,19.53,6.04,23.75,16.2,33.81,46.68,51.48,91.95Z"/>
          <path class="cls-1" d="M305.56,148.98c.12,8.31-.92,29.47-11.36,44.57-4.67,6.73-13.8,17-39.41,26.63-64.17,24.12-122.65,3.25-131.36,0-34.33-12.83-43.91-28.14-46.51-32.67-7.03-12.24-9.3-29.43-9.3-37.16h0s.01-.01,.01-.01l237.85-1.46s.05,.06,.09,.1Z"/>
          <path class="cls-1" d="M305.56,148.89v.1s-.05-.06-.09-.1h.09Z"/>
          <path class="cls-1" d="M305.47,148.89l-237.85,1.46c.64-.89,1.22-1.75,1.77-2.55,3.12-4.57,5.12-8.94,6.81-13.54,6.85-18.67,8.02-39.67,8.17-51.48l198.46-4.97c5.62,20.25,6.5,35.46,12.08,54.67,1.03,3.58,5.73,11.25,10.57,16.4Z"/>
        </g>
        <g>
          <path class="cls-2" d="M305.47,148.89c-4.84-5.16-9.53-12.82-10.57-16.4-5.58-19.21-6.45-34.42-12.08-54.67"/>
          <path class="cls-2" d="M67.62,150.36c-3.79,5.33-9.3,11.94-18.39,15.15-1.08,.38-17.22,5.79-30.54-3.9-9.93-7.23-12.2-18.46-13.13-23.43-3.21-17.11,4.1-30.82,14.91-50.42,0,0,15.81-28.65,44.73-49.35,4.02-2.88,9.69-6.47,16.69-5.68,6.64,.73,11.3,5.08,13.48,7.46,1.11-1.1,2.81-2.74,4.97-4.62C129.64,9.99,165.48,6.85,179.88,5.39c11.88-1.2,37.63-2.02,63.19,12.78,8.47,4.91,15.12,10.49,20.24,15.62,2.48-2.6,7.33-6.84,14.2-7.82,6.38-.89,12.57,1.29,19.53,6.04,23.75,16.2,33.81,46.68,51.48,91.95,.6,1.53,2.18,5.59,2.13,11.01-.01,1.47-.1,9.76-4.97,15.61-8.24,9.93-27.18,9.3-37.28,1.07-.93-.76-1.89-1.67-2.83-2.67"/>
          <path class="cls-2" d="M84.37,82.79c-.15,11.8-1.32,32.8-8.17,51.48-1.68,4.6-3.69,8.97-6.81,13.54-.54,.8-1.13,1.65-1.77,2.55"/>
          <path class="cls-2" d="M67.62,150.35h0c0,7.74,2.27,24.93,9.3,37.17,2.6,4.53,12.18,19.83,46.51,32.67,8.71,3.25,67.19,24.12,131.36,0,25.6-9.63,34.74-19.9,39.41-26.63,10.45-15.1,11.48-36.27,11.36-44.57v-.1"/>
        </g>
      </g>
      <path class="cls-2" d="M127.85,122.83c-1.05-9.39,4.69-17.81,12.43-19.88,9.29-2.49,20.38,4.45,22.01,15.98"/>
      <path class="cls-2" d="M223.7,118.57c-.56-10.82,8.59-18.99,17.4-18.11,8.26,.83,15.37,9.54,13.85,19.53"/>
      <path class="cls-2" d="M137.08,179.99c1.34,2.12,11.79,18.06,31.6,20.24,1.87,.21,18.02,1.73,30.89-8.88,2.22-1.83,3.86-3.63,4.97-4.97,5.95,9.61,17.1,14.67,28.05,12.78,10.27-1.77,18.7-9.38,21.66-19.53"/>
      <path class="cls-2" d="M152.34,197.03c6.92,16.27,24.2,33.83,47.93,30.53,22.61-3.14,34.44-26.52,33.02-28.21"/>
      <path class="cls-4" d="M204.16,176.26c-14.04,.69-30.66-7.24-31.24-16.8-.3-4.91,3.7-8.91,5.92-11.12,8.02-8.02,19.25-7.71,24.38-7.57,5.18,.14,14.85,.41,22.01,7.57,2.05,2.05,6.25,6.25,5.92,11.36-.59,9.07-15.16,15.99-26.98,16.57Z"/>
      <line class="cls-3" x1="204.53" y1="184.69" x2="204.16" y2="174.58"/>
    </g>
  </g>
</svg>