<?xml version="1.0" encoding="UTF-8"?>
<svg id="_레이어_2" data-name="레이어 2" xmlns="http://www.w3.org/2000/svg" viewBox="0 0 382.87 266.11">
  <defs>
    <style>
      .cls-1 {
        fill: #fff;
      }

      .cls-2, .cls-3 {
        stroke-miterlimit: 10;
      }

      .cls-2, .cls-3, .cls-4 {
        stroke-linecap: round;
      }

      .cls-2, .cls-3, .cls-4, .cls-5 {
        stroke: #6046cf;
        stroke-width: 9.59px;
      }

      .cls-2, .cls-4, .cls-5 {
        fill: none;
      }

      .cls-3, .cls-6 {
        fill: #6046cf;
      }

      .cls-4, .cls-5 {
        stroke-linejoin: round;
      }
    </style>
  </defs>
  <g id="_레이어_3" data-name="레이어 3">
    <g>
      <g>
        <path class="cls-1" d="M319.85,161.65c1.19,15.71-.13,20.14-.13,20.14-6.62,81.42-125.92,79.52-125.92,79.52h-4.74s-119.29,1.9-125.92-79.52c0,0-1.32-4.43-.13-20.13-1.01,1.92-2.16,3.67-3.41,5.27-10.25,13.06-27.77,15.48-41.43,7.29-16.57-9.95-16.09-27.94-7.57-64.39S48,43.56,57.94,35.99c9.95-7.57,16.57-8.52,28.41-9,11.83-.47,20.35,7.1,20.35,7.1C129.42,6.17,192.59,4.79,192.59,4.79c0,0,60.86,1.37,83.58,29.3,0,0,8.52-7.57,20.35-7.1,11.83,.48,18.47,1.43,28.41,9,9.94,7.57,38.81,37.4,47.33,73.84s9,54.44-7.57,64.39c-13.65,8.19-31.19,5.77-41.42-7.29-1.26-1.6-2.41-3.36-3.42-5.28Z"/>
        <g>
          <path class="cls-4" d="M87.29,81.91s-14.2,53.97-22.25,75.27c-.6,1.58-1.28,3.08-2.02,4.48-1.01,1.92-2.16,3.67-3.41,5.27-10.25,13.06-27.77,15.48-41.43,7.29-16.57-9.95-16.09-27.94-7.57-64.39S48,43.56,57.94,35.99c9.95-7.57,16.57-8.52,28.41-9,11.83-.47,20.35,7.1,20.35,7.1C129.42,6.17,192.59,4.79,192.59,4.79c0,0,60.86,1.37,83.58,29.3,0,0,8.52-7.57,20.35-7.1,11.83,.48,18.47,1.43,28.41,9,9.94,7.57,38.81,37.4,47.33,73.84s9,54.44-7.57,64.39c-13.65,8.19-31.19,5.77-41.42-7.29-1.26-1.6-2.41-3.36-3.42-5.28-.75-1.41-1.43-2.9-2.02-4.47-8.04-21.3-22.25-75.27-22.25-75.27"/>
          <path class="cls-5" d="M63.15,160.01c-.04,.56-.09,1.12-.13,1.65-1.19,15.7,.13,20.13,.13,20.13,6.62,81.42,125.92,79.52,125.92,79.52h4.74s119.29,1.9,125.92-79.52c0,0,1.32-4.43,.13-20.14-.04-.53-.09-1.08-.13-1.64"/>
        </g>
      </g>
      <ellipse class="cls-6" cx="132.95" cy="118.17" rx="12.07" ry="18.64"/>
      <ellipse class="cls-6" cx="249.92" cy="118.17" rx="12.07" ry="18.64"/>
      <path class="cls-2" d="M122.49,180.79c-.74,2.68-5.31,20.37,5.33,33.37,4.03,4.93,8.64,7.21,11.36,8.52,12.83,6.18,34.67,7.85,45.8-5.68,6.36-7.73,6.68-17.33,6.39-22.37"/>
      <path class="cls-2" d="M260.38,180.79c.74,2.68,5.31,20.37-5.33,33.37-4.03,4.93-8.64,7.21-11.36,8.52-12.83,6.18-34.67,7.85-45.8-5.68-6.36-7.73-6.68-17.33-6.39-22.37"/>
      <path class="cls-3" d="M191.02,191.45c-16.99-1.21-27.18-10.46-26.63-17.4,.49-6.23,11.14-11.01,12.78-11.72,6.24-2.68,11.94-2.46,14.91-2.13"/>
      <path class="cls-3" d="M189.95,191.45c16.99-1.21,27.18-10.46,26.63-17.4-.49-6.23-11.14-11.01-12.78-11.72-6.24-2.68-11.94-2.46-14.91-2.13"/>
    </g>
  </g>
</svg>