<svg width="27" height="28" viewBox="0 0 27 28" fill="none" xmlns="http://www.w3.org/2000/svg">
<path d="M8.24988 19.0204C8.12333 18.8935 8.05225 18.7215 8.05225 18.5422C8.05225 18.3628 8.12333 18.1908 8.24988 18.064L12.5456 13.7594L8.24988 9.45488C8.12692 9.32731 8.05888 9.15645 8.06042 8.9791C8.06196 8.80176 8.13295 8.63211 8.2581 8.5067C8.38325 8.3813 8.55255 8.31016 8.72953 8.30862C8.90651 8.30708 9.07702 8.37525 9.20433 8.49846L13.5 12.803L17.7957 8.49846C17.923 8.37525 18.0935 8.30708 18.2705 8.30862C18.4475 8.31016 18.6168 8.3813 18.742 8.5067C18.8671 8.63211 18.9381 8.80176 18.9396 8.9791C18.9412 9.15645 18.8731 9.32731 18.7502 9.45488L14.4545 13.7594L18.7502 18.064C18.8731 18.1915 18.9412 18.3624 18.9396 18.5397C18.9381 18.7171 18.8671 18.8867 18.742 19.0121C18.6168 19.1375 18.4475 19.2087 18.2705 19.2102C18.0935 19.2118 17.923 19.1436 17.7957 19.0204L13.5 14.7158L9.20433 19.0204C9.07775 19.1472 8.90609 19.2184 8.7271 19.2184C8.54812 19.2184 8.37646 19.1472 8.24988 19.0204Z" fill="#F10000"/>
<path fill-rule="evenodd" clip-rule="evenodd" d="M13.5 27.288C20.9561 27.288 27 21.2316 27 13.7602C27 6.28881 20.9561 0.232422 13.5 0.232422C6.04395 0.232422 0 6.28881 0 13.7602C0 21.2316 6.04395 27.288 13.5 27.288ZM13.5 25.9352C20.2102 25.9352 25.65 20.4842 25.65 13.7602C25.65 7.03622 20.2102 1.5852 13.5 1.5852C6.78982 1.5852 1.35 7.03622 1.35 13.7602C1.35 20.4842 6.78982 25.9352 13.5 25.9352Z" fill="#F10000"/>
</svg>
