<svg width="168" height="40" viewBox="0 0 168 40" fill="none" xmlns="http://www.w3.org/2000/svg">
<rect width="168" height="40" rx="15" fill="#6046CF"/>
<path d="M51.6348 28.6504H49.8379V11.1504H51.6348V28.6504ZM50.3555 19.7051H47.084V18.1523H50.3555V19.7051ZM47.6113 27.7715H45.873V11.5117H47.6113V27.7715ZM39.3203 23.3184H37.4746V13.2305H39.3203V23.3184ZM38.5879 22.5859C39.6296 22.5859 40.6419 22.5436 41.625 22.459C42.6081 22.3743 43.6237 22.2311 44.6719 22.0293L44.8965 23.6602C43.7572 23.8555 42.6764 23.9987 41.6543 24.0898C40.6322 24.1745 39.61 24.2168 38.5879 24.2168H37.4746V22.5859H38.5879ZM72.0742 17.1367H68.2949V15.6133H72.0742V17.1367ZM73.4023 21.5703H71.5469V11.1504H73.4023V21.5703ZM67.5332 22.0684C68.7637 22.0684 69.8216 22.1986 70.707 22.459C71.599 22.7194 72.2793 23.097 72.748 23.5918C73.2233 24.0801 73.4609 24.6693 73.4609 25.3594C73.4609 26.0495 73.2233 26.6387 72.748 27.127C72.2793 27.6217 71.599 27.9993 70.707 28.2598C69.8216 28.5202 68.7637 28.6536 67.5332 28.6602C66.3158 28.6536 65.2643 28.5202 64.3789 28.2598C63.4935 27.9993 62.8132 27.6217 62.3379 27.127C61.8626 26.6387 61.625 26.0495 61.625 25.3594C61.625 24.6693 61.8626 24.0801 62.3379 23.5918C62.8132 23.097 63.4935 22.7194 64.3789 22.459C65.2643 22.1986 66.3158 22.0684 67.5332 22.0684ZM67.5332 23.4941C66.6934 23.4941 65.9642 23.569 65.3457 23.7188C64.7337 23.862 64.265 24.0736 63.9395 24.3535C63.6204 24.6335 63.4609 24.9688 63.4609 25.3594C63.4609 25.737 63.6204 26.0658 63.9395 26.3457C64.265 26.6257 64.7337 26.8405 65.3457 26.9902C65.9642 27.1335 66.6934 27.2051 67.5332 27.2051C68.3926 27.2051 69.125 27.1335 69.7305 26.9902C70.3424 26.8405 70.8079 26.6257 71.127 26.3457C71.4525 26.0658 71.6152 25.737 71.6152 25.3594C71.6152 24.9688 71.4525 24.6335 71.127 24.3535C70.8079 24.0736 70.3424 23.862 69.7305 23.7188C69.125 23.569 68.3926 23.4941 67.5332 23.4941ZM64.7207 14.2754C64.7207 15.3496 64.5189 16.3652 64.1152 17.3223C63.7181 18.2793 63.1484 19.1191 62.4062 19.8418C61.6641 20.5579 60.7949 21.1016 59.7988 21.4727L58.832 19.9883C59.7174 19.6758 60.4889 19.2233 61.1465 18.6309C61.8105 18.0384 62.3184 17.3646 62.6699 16.6094C63.0215 15.8477 63.1973 15.0697 63.1973 14.2754V12.918H64.7207V14.2754ZM65.0723 14.2559C65.0723 14.9915 65.2415 15.7077 65.5801 16.4043C65.9186 17.0944 66.4069 17.7129 67.0449 18.2598C67.6829 18.8001 68.4316 19.2201 69.291 19.5195L68.3438 20.9941C67.3607 20.6491 66.5111 20.138 65.7949 19.4609C65.0788 18.7839 64.5286 17.9961 64.1445 17.0977C63.7604 16.1927 63.5684 15.2454 63.5684 14.2559V12.918H65.0723V14.2559ZM68.8418 13.8848H59.3887V12.3516H68.8418V13.8848ZM92.1133 26.4824H76.0977V24.959H92.1133V26.4824ZM84.9746 25.3887H83.1582V20.877H84.9746V25.3887ZM79.7891 15.3691H88.3828V12.3516H90.209V21.3652H77.9238V12.3516H79.7891V15.3691ZM88.3828 19.8613V16.8633H79.7891V19.8613H88.3828ZM106.918 12.6934C106.918 13.7741 106.599 14.7702 105.961 15.6816C105.323 16.5931 104.457 17.3516 103.363 17.957C102.276 18.556 101.078 18.9596 99.7695 19.168L99.0273 17.6738C100.16 17.5241 101.205 17.2018 102.162 16.707C103.119 16.2122 103.878 15.6133 104.438 14.9102C105.004 14.207 105.287 13.4681 105.287 12.6934V11.7461H106.918V12.6934ZM107.211 12.6934C107.211 13.4616 107.494 14.2005 108.061 14.9102C108.633 15.6133 109.402 16.2122 110.365 16.707C111.335 17.2018 112.38 17.5241 113.5 17.6738L112.768 19.168C111.452 18.9596 110.251 18.5527 109.164 17.9473C108.077 17.3418 107.211 16.5833 106.566 15.6719C105.922 14.7604 105.6 13.7676 105.6 12.6934V11.7461H107.211V12.6934ZM107.123 28.6504H105.297V22.0586H107.123V28.6504ZM114.223 22.4395H98.2656V20.8965H114.223V22.4395ZM128.812 17.1367H125.033V15.6133H128.812V17.1367ZM130.141 21.5703H128.285V11.1504H130.141V21.5703ZM124.271 22.0684C125.502 22.0684 126.56 22.1986 127.445 22.459C128.337 22.7194 129.018 23.097 129.486 23.5918C129.962 24.0801 130.199 24.6693 130.199 25.3594C130.199 26.0495 129.962 26.6387 129.486 27.127C129.018 27.6217 128.337 27.9993 127.445 28.2598C126.56 28.5202 125.502 28.6536 124.271 28.6602C123.054 28.6536 122.003 28.5202 121.117 28.2598C120.232 27.9993 119.551 27.6217 119.076 27.127C118.601 26.6387 118.363 26.0495 118.363 25.3594C118.363 24.6693 118.601 24.0801 119.076 23.5918C119.551 23.097 120.232 22.7194 121.117 22.459C122.003 22.1986 123.054 22.0684 124.271 22.0684ZM124.271 23.4941C123.432 23.4941 122.702 23.569 122.084 23.7188C121.472 23.862 121.003 24.0736 120.678 24.3535C120.359 24.6335 120.199 24.9688 120.199 25.3594C120.199 25.737 120.359 26.0658 120.678 26.3457C121.003 26.6257 121.472 26.8405 122.084 26.9902C122.702 27.1335 123.432 27.2051 124.271 27.2051C125.131 27.2051 125.863 27.1335 126.469 26.9902C127.081 26.8405 127.546 26.6257 127.865 26.3457C128.191 26.0658 128.354 25.737 128.354 25.3594C128.354 24.9688 128.191 24.6335 127.865 24.3535C127.546 24.0736 127.081 23.862 126.469 23.7188C125.863 23.569 125.131 23.4941 124.271 23.4941ZM121.459 14.2754C121.459 15.3496 121.257 16.3652 120.854 17.3223C120.456 18.2793 119.887 19.1191 119.145 19.8418C118.402 20.5579 117.533 21.1016 116.537 21.4727L115.57 19.9883C116.456 19.6758 117.227 19.2233 117.885 18.6309C118.549 18.0384 119.057 17.3646 119.408 16.6094C119.76 15.8477 119.936 15.0697 119.936 14.2754V12.918H121.459V14.2754ZM121.811 14.2559C121.811 14.9915 121.98 15.7077 122.318 16.4043C122.657 17.0944 123.145 17.7129 123.783 18.2598C124.421 18.8001 125.17 19.2201 126.029 19.5195L125.082 20.9941C124.099 20.6491 123.249 20.138 122.533 19.4609C121.817 18.7839 121.267 17.9961 120.883 17.0977C120.499 16.1927 120.307 15.2454 120.307 14.2559V12.918H121.811V14.2559ZM125.58 13.8848H116.127V12.3516H125.58V13.8848Z" fill="white"/>
</svg>
