<svg width="14" height="14" viewBox="0 0 14 14" fill="none" xmlns="http://www.w3.org/2000/svg">
<rect width="14" height="14" fill="white" fill-opacity="0.01" style="mix-blend-mode:multiply"/>
<path d="M11.375 5.25H8.75V2.625C8.74962 2.27702 8.61121 1.9434 8.36516 1.69734C8.1191 1.45129 7.78548 1.31288 7.4375 1.3125H6.5044C6.29399 1.31334 6.09087 1.38962 5.93192 1.52749C5.77297 1.66535 5.66873 1.85565 5.63815 2.06382L5.26833 4.65229L3.70335 7H0.875V13.125H10.0625C10.8744 13.1241 11.6529 12.8012 12.227 12.227C12.8012 11.6529 13.1241 10.8744 13.125 10.0625V7C13.1245 6.53603 12.9399 6.09121 12.6119 5.76314C12.2838 5.43506 11.839 5.25052 11.375 5.25ZM3.5 12.25H1.75V7.875H3.5V12.25ZM12.25 10.0625C12.2493 10.6425 12.0187 11.1985 11.6086 11.6086C11.1985 12.0187 10.6425 12.2493 10.0625 12.25H4.375V7.56993L6.10654 4.97271L6.5044 2.1875H7.4375C7.5535 2.18759 7.66473 2.23372 7.74676 2.31574C7.82878 2.39777 7.87491 2.509 7.875 2.625V6.125H11.375C11.607 6.12529 11.8294 6.21757 11.9934 6.3816C12.1574 6.54563 12.2497 6.76802 12.25 7V10.0625Z" fill="#E4E4E4"/>
</svg>
