<svg width="16" height="16" viewBox="0 0 16 16" fill="none" xmlns="http://www.w3.org/2000/svg">
<rect width="16" height="16" fill="white" fill-opacity="0.01" style="mix-blend-mode:multiply"/>
<path d="M13 6H10V3C9.99956 2.60231 9.84139 2.22103 9.56018 1.93982C9.27897 1.65861 8.89769 1.50044 8.5 1.5H7.4336C7.19314 1.50096 6.96099 1.58814 6.77934 1.7457C6.59768 1.90325 6.47855 2.12074 6.4436 2.35865L6.02095 5.3169L4.2324 8H1V15H11.5C12.4279 14.999 13.3176 14.6299 13.9737 13.9737C14.6299 13.3176 14.999 12.4279 15 11.5V8C14.9994 7.46975 14.7885 6.96139 14.4136 6.58644C14.0386 6.2115 13.5303 6.0006 13 6ZM4 14H2V9H4V14ZM14 11.5C13.9992 12.1628 13.7356 12.7983 13.2669 13.2669C12.7983 13.7356 12.1628 13.9992 11.5 14H5V8.65135L6.9789 5.6831L7.4336 2.5H8.5C8.63258 2.50011 8.75969 2.55282 8.85344 2.64656C8.94718 2.74031 8.99989 2.86742 9 3V7H13C13.2651 7.00033 13.5193 7.10579 13.7067 7.29326C13.8942 7.48072 13.9997 7.73489 14 8V11.5Z" fill="#999999"/>
</svg>
