<svg width="14" height="14" viewBox="0 0 14 14" fill="none" xmlns="http://www.w3.org/2000/svg">
<rect width="14" height="14" fill="white" fill-opacity="0.01" style="mix-blend-mode:multiply"/>
<path d="M13.5361 6.85125C13.0215 5.52022 12.1282 4.36914 10.9665 3.54029C9.80489 2.71143 8.42584 2.24113 6.99981 2.1875C5.57379 2.24113 4.19473 2.71143 3.03309 3.54029C1.87145 4.36914 0.978134 5.52022 0.463564 6.85125C0.428812 6.94737 0.428812 7.05263 0.463564 7.14875C0.978134 8.47978 1.87145 9.63085 3.03309 10.4597C4.19473 11.2886 5.57379 11.7589 6.99981 11.8125C8.42584 11.7589 9.80489 11.2886 10.9665 10.4597C12.1282 9.63085 13.0215 8.47978 13.5361 7.14875C13.5708 7.05263 13.5708 6.94737 13.5361 6.85125ZM6.99981 10.9375C4.68106 10.9375 2.23106 9.21812 1.34294 7C2.23106 4.78187 4.68106 3.0625 6.99981 3.0625C9.31856 3.0625 11.7686 4.78187 12.6567 7C11.7686 9.21812 9.31856 10.9375 6.99981 10.9375Z" fill="#7F7F7F"/>
<path d="M6.99981 4.375C6.48064 4.375 5.97312 4.52895 5.54144 4.81739C5.10976 5.10583 4.77331 5.5158 4.57463 5.99546C4.37595 6.47511 4.32397 7.00291 4.42525 7.51211C4.52654 8.02131 4.77655 8.48904 5.14366 8.85616C5.51077 9.22327 5.9785 9.47328 6.4877 9.57456C6.9969 9.67585 7.5247 9.62386 8.00436 9.42518C8.48401 9.2265 8.89398 8.89005 9.18242 8.45837C9.47086 8.02669 9.62481 7.51918 9.62481 7C9.62481 6.30381 9.34825 5.63613 8.85597 5.14384C8.36369 4.65156 7.69601 4.375 6.99981 4.375ZM6.99981 8.75C6.6537 8.75 6.31535 8.64736 6.02757 8.45507C5.73978 8.26278 5.51548 7.98947 5.38302 7.6697C5.25057 7.34993 5.21592 6.99806 5.28344 6.65859C5.35096 6.31913 5.51764 6.0073 5.76238 5.76256C6.00712 5.51782 6.31894 5.35115 6.65841 5.28363C6.99787 5.2161 7.34974 5.25076 7.66951 5.38321C7.98928 5.51566 8.26259 5.73997 8.45489 6.02775C8.64718 6.31554 8.74981 6.65388 8.74981 7C8.74981 7.46413 8.56544 7.90925 8.23725 8.23744C7.90906 8.56563 7.46394 8.75 6.99981 8.75Z" fill="#7F7F7F"/>
</svg>
