<svg width="16" height="16" viewBox="0 0 16 16" fill="none" xmlns="http://www.w3.org/2000/svg">
<rect width="16" height="16" fill="white" fill-opacity="0.01" style="mix-blend-mode:multiply"/>
<path d="M15.4698 7.83C14.8817 6.30882 13.8608 4.99331 12.5332 4.04604C11.2056 3.09878 9.62953 2.56129 7.99979 2.5C6.37005 2.56129 4.79398 3.09878 3.46639 4.04604C2.1388 4.99331 1.11787 6.30882 0.529787 7.83C0.490071 7.93985 0.490071 8.06015 0.529787 8.17C1.11787 9.69118 2.1388 11.0067 3.46639 11.954C4.79398 12.9012 6.37005 13.4387 7.99979 13.5C9.62953 13.4387 11.2056 12.9012 12.5332 11.954C13.8608 11.0067 14.8817 9.69118 15.4698 8.17C15.5095 8.06015 15.5095 7.93985 15.4698 7.83ZM7.99979 12.5C5.34979 12.5 2.54979 10.535 1.53479 8C2.54979 5.465 5.34979 3.5 7.99979 3.5C10.6498 3.5 13.4498 5.465 14.4648 8C13.4498 10.535 10.6498 12.5 7.99979 12.5Z" fill="#939393"/>
<path d="M7.99979 5C7.40644 5 6.82642 5.17595 6.33308 5.50559C5.83973 5.83524 5.45521 6.30377 5.22815 6.85195C5.00109 7.40013 4.94168 8.00333 5.05743 8.58527C5.17319 9.16721 5.45891 9.70176 5.87847 10.1213C6.29802 10.5409 6.83257 10.8266 7.41452 10.9424C7.99646 11.0581 8.59966 10.9987 9.14784 10.7716C9.69602 10.5446 10.1646 10.1601 10.4942 9.66671C10.8238 9.17336 10.9998 8.59334 10.9998 8C10.9998 7.20435 10.6837 6.44129 10.1211 5.87868C9.5585 5.31607 8.79544 5 7.99979 5ZM7.99979 10C7.60422 10 7.21755 9.8827 6.88865 9.66294C6.55975 9.44318 6.3034 9.13082 6.15203 8.76537C6.00065 8.39991 5.96105 7.99778 6.03822 7.60982C6.11539 7.22186 6.30587 6.86549 6.58557 6.58579C6.86528 6.30608 7.22164 6.1156 7.60961 6.03843C7.99757 5.96126 8.3997 6.00087 8.76515 6.15224C9.13061 6.30362 9.44296 6.55996 9.66273 6.88886C9.88249 7.21776 9.99979 7.60444 9.99979 8C9.99979 8.53043 9.78907 9.03914 9.414 9.41421C9.03893 9.78929 8.53022 10 7.99979 10Z" fill="#939393"/>
</svg>
