<svg width="24" height="24" viewBox="0 0 24 24" fill="none" xmlns="http://www.w3.org/2000/svg">
<rect width="24" height="24" transform="translate(0.000976562)" fill="white" fill-opacity="0.01" style="mix-blend-mode:multiply"/>
<path d="M13.306 22.5L12.001 21.75L15.001 16.5H19.501C19.8988 16.5 20.2803 16.342 20.5616 16.0607C20.8429 15.7794 21.001 15.3978 21.001 15V6C21.001 5.60218 20.8429 5.22064 20.5616 4.93934C20.2803 4.65804 19.8988 4.5 19.501 4.5H4.50098C4.10315 4.5 3.72162 4.65804 3.44032 4.93934C3.15901 5.22064 3.00098 5.60218 3.00098 6V15C3.00098 15.3978 3.15901 15.7794 3.44032 16.0607C3.72162 16.342 4.10315 16.5 4.50098 16.5H11.251V18H4.50098C3.70533 18 2.94227 17.6839 2.37966 17.1213C1.81705 16.5587 1.50098 15.7956 1.50098 15V6C1.50098 5.20435 1.81705 4.44129 2.37966 3.87868C2.94227 3.31607 3.70533 3 4.50098 3H19.501C20.2966 3 21.0597 3.31607 21.6223 3.87868C22.1849 4.44129 22.501 5.20435 22.501 6V15C22.501 15.7956 22.1849 16.5587 21.6223 17.1213C21.0597 17.6839 20.2966 18 19.501 18H15.871L13.306 22.5Z" fill="#424242"/>
<path d="M12.751 6.75H11.251V9.75H8.25098V11.25H11.251V14.25H12.751V11.25H15.751V9.75H12.751V6.75Z" fill="#424242"/>
</svg>
