<svg width="96" height="42" viewBox="0 0 96 42" fill="none" xmlns="http://www.w3.org/2000/svg">
<rect width="96" height="42" rx="8" fill="#F6F6F6"/>
<path d="M23.4043 15.2734V16.0117C23.3906 16.8594 23.3906 18.0762 23.1035 19.6484L21.5996 19.5117C21.8389 18.2334 21.8867 17.29 21.9141 16.5312H17.1016V15.2734H23.4043ZM20.2871 18.0898V20.5508C21.5654 20.5029 22.8779 20.4072 24.0742 20.2363L24.1562 21.3301C21.5859 21.7949 18.6738 21.8359 16.5 21.8496L16.3633 20.6328C17.0947 20.626 17.915 20.6191 18.7832 20.6055V18.0898H20.2871ZM26.3574 14.3574V18.2129H27.957V19.4844H26.3574V23.6133H24.7988V14.3574H26.3574ZM26.7539 25.2402V26.4707H18.209V22.793H19.7402V25.2402H26.7539ZM38.8945 14.3711V21.3574H37.3633V14.3711H38.8945ZM38.8945 21.9727V26.5664H30.6914V21.9727H38.8945ZM32.1953 23.1758V25.3359H37.4043V23.1758H32.1953ZM33.207 16.0391C33.207 17.6113 34.2598 19.0879 36.1875 19.7031L35.4492 20.8652C34.0205 20.4209 32.9951 19.5117 32.4414 18.3223C31.874 19.6006 30.835 20.6191 29.3516 21.1113L28.5996 19.9082C30.6094 19.2656 31.6348 17.666 31.6348 16.0391V14.8359H33.207V16.0391ZM45.1152 17.3242C45.1016 19.5254 46.209 21.7676 48.123 22.6836L47.1934 23.9004C45.8535 23.2236 44.8896 21.918 44.3633 20.3457C43.8232 22.0273 42.8115 23.4219 41.3965 24.1328L40.4668 22.916C42.4492 21.9727 43.584 19.6074 43.5977 17.3242V15.3555H45.1152V17.3242ZM50.3789 14.3574V19.1973H52.2793V20.4961H50.3789V26.7168H48.8613V14.3574H50.3789ZM62.5605 15.3828C62.5605 16.9414 64.2969 18.5137 66.9355 18.8555L66.334 20.0859C64.2354 19.7715 62.5674 18.7393 61.7676 17.3379C60.9541 18.7393 59.293 19.7715 57.2148 20.0859L56.6133 18.8555C59.2246 18.5137 60.9609 16.9414 60.9609 15.3828V14.7539H62.5605V15.3828ZM67.3867 21.1523V22.4102H62.4785V26.7168H60.9746V22.4102H56.1211V21.1523H67.3867ZM78.5703 14.3574V21.6992H77.0527V18.6777H74.9473V17.4336H77.0527V14.3574H78.5703ZM74.3867 22.0137C77.0117 22.0137 78.6113 22.875 78.6113 24.3652C78.6113 25.8555 77.0117 26.7168 74.3867 26.7168C71.7754 26.7168 70.1758 25.8555 70.1895 24.3652C70.1758 22.875 71.7754 22.0137 74.3867 22.0137ZM74.3867 23.1758C72.6641 23.1758 71.6934 23.5859 71.6934 24.3652C71.6934 25.1309 72.6641 25.541 74.3867 25.541C76.1094 25.541 77.0938 25.1309 77.0938 24.3652C77.0938 23.5859 76.1094 23.1758 74.3867 23.1758ZM72.7598 16.4766C72.7598 17.9805 73.7578 19.498 75.6719 20.1406L74.9062 21.3438C73.5322 20.8789 72.5547 19.9355 72.0215 18.7734C71.4746 20.0928 70.4424 21.1455 68.9727 21.6719L68.1797 20.4688C70.1621 19.7852 71.2148 18.1172 71.2148 16.4902V16.3945H68.6445V15.1641H75.3164V16.3945H72.7598V16.4766Z" fill="#7A42DF"/>
</svg>
