<svg width="40" height="40" viewBox="0 0 40 40" fill="none" xmlns="http://www.w3.org/2000/svg">
<path d="M22.5 11.25C22.5 14.2337 21.3147 17.0952 19.205 19.205C17.0952 21.3147 14.2337 22.5 11.25 22.5C8.26631 22.5 5.40483 21.3147 3.29505 19.205C1.18526 17.0952 0 14.2337 0 11.25C0 8.26631 1.18526 5.40483 3.29505 3.29505C5.40483 1.18526 8.26631 0 11.25 0C14.2337 0 17.0952 1.18526 19.205 3.29505C21.3147 5.40483 22.5 8.26631 22.5 11.25ZM12.5 6.25C12.5 5.91848 12.3683 5.60054 12.1339 5.36612C11.8995 5.1317 11.5815 5 11.25 5C10.9185 5 10.6005 5.1317 10.3661 5.36612C10.1317 5.60054 10 5.91848 10 6.25V10H6.25C5.91848 10 5.60054 10.1317 5.36612 10.3661C5.1317 10.6005 5 10.9185 5 11.25C5 11.5815 5.1317 11.8995 5.36612 12.1339C5.60054 12.3683 5.91848 12.5 6.25 12.5H10V16.25C10 16.5815 10.1317 16.8995 10.3661 17.1339C10.6005 17.3683 10.9185 17.5 11.25 17.5C11.5815 17.5 11.8995 17.3683 12.1339 17.1339C12.3683 16.8995 12.5 16.5815 12.5 16.25V12.5H16.25C16.5815 12.5 16.8995 12.3683 17.1339 12.1339C17.3683 11.8995 17.5 11.5815 17.5 11.25C17.5 10.9185 17.3683 10.6005 17.1339 10.3661C16.8995 10.1317 16.5815 10 16.25 10H12.5V6.25ZM32.5 7.5H24.4825C24.2374 6.6366 23.9083 5.79927 23.5 5H32.5C34.4891 5 36.3968 5.79018 37.8033 7.1967C39.2098 8.60322 40 10.5109 40 12.5V32.5C40 34.4891 39.2098 36.3968 37.8033 37.8033C36.3968 39.2098 34.4891 40 32.5 40H12.5C10.5109 40 8.60322 39.2098 7.1967 37.8033C5.79018 36.3968 5 34.4891 5 32.5V23.5C5.79333 23.9067 6.62667 24.2342 7.5 24.4825V32.5C7.5 33.4325 7.755 34.305 8.2 35.05L19.8725 23.58C20.5737 22.8914 21.5172 22.5056 22.5 22.5056C23.4828 22.5056 24.4263 22.8914 25.1275 23.58L36.8025 35.05C37.2596 34.278 37.5005 33.3972 37.5 32.5V12.5C37.5 11.1739 36.9732 9.90215 36.0355 8.96447C35.0979 8.02678 33.8261 7.5 32.5 7.5ZM32.5 16.25C32.5 16.7425 32.403 17.2301 32.2146 17.6851C32.0261 18.14 31.7499 18.5534 31.4017 18.9017C31.0534 19.2499 30.64 19.5261 30.1851 19.7145C29.7301 19.903 29.2425 20 28.75 20C28.2575 20 27.7699 19.903 27.3149 19.7145C26.86 19.5261 26.4466 19.2499 26.0983 18.9017C25.7501 18.5534 25.4739 18.14 25.2855 17.6851C25.097 17.2301 25 16.7425 25 16.25C25 15.2554 25.3951 14.3016 26.0983 13.5983C26.8016 12.8951 27.7554 12.5 28.75 12.5C29.7446 12.5 30.6984 12.8951 31.4017 13.5983C32.1049 14.3016 32.5 15.2554 32.5 16.25ZM30 16.25C30 15.9185 29.8683 15.6005 29.6339 15.3661C29.3995 15.1317 29.0815 15 28.75 15C28.4185 15 28.1005 15.1317 27.8661 15.3661C27.6317 15.6005 27.5 15.9185 27.5 16.25C27.5 16.5815 27.6317 16.8995 27.8661 17.1339C28.1005 17.3683 28.4185 17.5 28.75 17.5C29.0815 17.5 29.3995 17.3683 29.6339 17.1339C29.8683 16.8995 30 16.5815 30 16.25ZM9.97 36.815C10.7374 37.2642 11.6108 37.5007 12.5 37.5H32.5C33.425 37.5 34.2875 37.25 35.03 36.815L23.375 25.365C23.1413 25.136 22.8272 25.0077 22.5 25.0077C22.1728 25.0077 21.8587 25.136 21.625 25.365L9.97 36.815Z" fill="black"/>
</svg>
