<svg width="20" height="20" viewBox="0 0 20 20" fill="none" xmlns="http://www.w3.org/2000/svg">
<rect width="20" height="20" fill="white" fill-opacity="0.01" style="mix-blend-mode:multiply"/>
<path d="M10.625 1.25H9.375V4.35H10.625V1.25Z" fill="#161616"/>
<path d="M15.7462 3.36464L13.5542 5.55667L14.4381 6.44056L16.6301 4.24853L15.7462 3.36464Z" fill="#161616"/>
<path d="M18.75 9.375H15.65V10.625H18.75V9.375Z" fill="#161616"/>
<path d="M14.4417 13.5558L13.5578 14.4397L15.7499 16.6317L16.6337 15.7478L14.4417 13.5558Z" fill="#161616"/>
<path d="M10.625 15.65H9.375V18.75H10.625V15.65Z" fill="#161616"/>
<path d="M5.56496 13.5594L3.37293 15.7515L4.25681 16.6354L6.44884 14.4433L5.56496 13.5594Z" fill="#161616"/>
<path d="M4.35 9.375H1.25V10.625H4.35V9.375Z" fill="#161616"/>
<path d="M4.25316 3.36829L3.36928 4.25218L5.56131 6.44421L6.44519 5.56032L4.25316 3.36829Z" fill="#161616"/>
<path d="M10 7.5C10.4945 7.5 10.9778 7.64662 11.3889 7.92133C11.8 8.19603 12.1205 8.58648 12.3097 9.04329C12.4989 9.50011 12.5484 10.0028 12.452 10.4877C12.3555 10.9727 12.1174 11.4181 11.7678 11.7678C11.4181 12.1174 10.9727 12.3555 10.4877 12.452C10.0028 12.5484 9.50011 12.4989 9.04329 12.3097C8.58648 12.1205 8.19603 11.8 7.92133 11.3889C7.64662 10.9778 7.5 10.4945 7.5 10C7.5 9.33696 7.76339 8.70107 8.23223 8.23223C8.70107 7.76339 9.33696 7.5 10 7.5ZM10 6.25C9.25832 6.25 8.5333 6.46993 7.91661 6.88199C7.29993 7.29404 6.81928 7.87971 6.53545 8.56494C6.25162 9.25016 6.17736 10.0042 6.32206 10.7316C6.46675 11.459 6.8239 12.1272 7.34835 12.6517C7.8728 13.1761 8.54098 13.5333 9.26841 13.6779C9.99584 13.8226 10.7498 13.7484 11.4351 13.4645C12.1203 13.1807 12.706 12.7001 13.118 12.0834C13.5301 11.4667 13.75 10.7417 13.75 10C13.75 9.00544 13.3549 8.05161 12.6517 7.34835C11.9484 6.64509 10.9946 6.25 10 6.25Z" fill="#161616"/>
</svg>
