<svg width="104" height="104" viewBox="0 0 104 104" fill="none" xmlns="http://www.w3.org/2000/svg">
<g filter="url(#filter0_d_312_9792)">
<rect x="12" y="6" width="80" height="80" rx="40" fill="white"/>
<rect width="28" height="28" transform="translate(38 23)" fill="white" fill-opacity="0.01" style="mix-blend-mode:multiply"/>
<path d="M52 26.5L43.25 35.25L44.4837 36.4837L51.125 29.8512V47.5H52.875V29.8512L59.5163 36.4837L60.75 35.25L52 26.5Z" fill="#191919"/>
<path d="M36.5469 57.6875H45.5703V59.3984H42.0781V69H40.0547V59.3984H36.5469V57.6875ZM56.7656 63.3438C56.7656 64.5312 56.5417 65.5651 56.0938 66.4453C55.651 67.3203 55.0365 67.9922 54.25 68.4609C53.4635 68.9245 52.5729 69.1562 51.5781 69.1562C50.5833 69.1562 49.6927 68.9245 48.9062 68.4609C48.125 67.9922 47.5104 67.3177 47.0625 66.4375C46.6146 65.5573 46.3906 64.526 46.3906 63.3438C46.3906 62.1458 46.6146 61.1094 47.0625 60.2344C47.5104 59.3594 48.125 58.6901 48.9062 58.2266C49.6927 57.763 50.5833 57.5312 51.5781 57.5312C52.5729 57.5312 53.4635 57.763 54.25 58.2266C55.0365 58.6901 55.651 59.3594 56.0938 60.2344C56.5417 61.1094 56.7656 62.1458 56.7656 63.3438ZM54.7266 63.3438C54.7266 62.5 54.5938 61.7786 54.3281 61.1797C54.0677 60.5807 53.7005 60.1276 53.2266 59.8203C52.7578 59.513 52.2083 59.3594 51.5781 59.3594C50.9583 59.3594 50.4089 59.513 49.9297 59.8203C49.4557 60.1276 49.0859 60.5807 48.8203 61.1797C48.5599 61.7786 48.4297 62.5 48.4297 63.3438C48.4297 64.1875 48.5599 64.9089 48.8203 65.5078C49.0859 66.1068 49.4557 66.5599 49.9297 66.8672C50.4089 67.1745 50.9583 67.3281 51.5781 67.3281C52.2083 67.3281 52.7578 67.1745 53.2266 66.8672C53.7005 66.5599 54.0677 66.1068 54.3281 65.5078C54.5938 64.9089 54.7266 64.1875 54.7266 63.3438ZM58.5859 57.6875H62.8203C63.6641 57.6875 64.3854 57.8464 64.9844 58.1641C65.5885 58.4818 66.0443 58.9245 66.3516 59.4922C66.6589 60.0547 66.8125 60.7031 66.8125 61.4375C66.8125 62.1667 66.6562 62.8125 66.3438 63.375C66.0312 63.9323 65.5729 64.3724 64.9688 64.6953C64.3698 65.013 63.6432 65.1719 62.7891 65.1719H59.9766V63.4922H62.5156C63.0156 63.4922 63.4297 63.4062 63.7578 63.2344C64.0911 63.0573 64.3359 62.8151 64.4922 62.5078C64.6536 62.2005 64.7344 61.8438 64.7344 61.4375C64.7344 61.0208 64.6536 60.6615 64.4922 60.3594C64.3359 60.0521 64.0911 59.8151 63.7578 59.6484C63.4245 59.4766 63.0078 59.3906 62.5078 59.3906H60.6172V69H58.5859V57.6875Z" fill="#191919"/>
</g>
<defs>
<filter id="filter0_d_312_9792" x="0" y="0" width="104" height="104" filterUnits="userSpaceOnUse" color-interpolation-filters="sRGB">
<feFlood flood-opacity="0" result="BackgroundImageFix"/>
<feColorMatrix in="SourceAlpha" type="matrix" values="0 0 0 0 0 0 0 0 0 0 0 0 0 0 0 0 0 0 127 0" result="hardAlpha"/>
<feOffset dy="6"/>
<feGaussianBlur stdDeviation="6"/>
<feComposite in2="hardAlpha" operator="out"/>
<feColorMatrix type="matrix" values="0 0 0 0 0 0 0 0 0 0 0 0 0 0 0 0 0 0 0.12 0"/>
<feBlend mode="normal" in2="BackgroundImageFix" result="effect1_dropShadow_312_9792"/>
<feBlend mode="normal" in="SourceGraphic" in2="effect1_dropShadow_312_9792" result="shape"/>
</filter>
</defs>
</svg>
