<svg width="104" height="104" viewBox="0 0 104 104" fill="none" xmlns="http://www.w3.org/2000/svg">
<g filter="url(#filter0_d_312_6904)">
<rect x="12" y="6" width="80" height="80" rx="40" fill="white"/>
<rect width="28" height="28" transform="translate(38 24)" fill="white" fill-opacity="0.01" style="mix-blend-mode:multiply"/>
<path d="M52 27.5L43.25 36.25L44.4837 37.4837L51.125 30.8512V48.5H52.875V30.8512L59.5163 37.4837L60.75 36.25L52 27.5Z" fill="#191919"/>
<path d="M41.4688 59.4531V58.5156H47.8672V59.4531H45.207V67H44.1406V59.4531H41.4688ZM56.0938 62.7578C56.0938 65.4414 54.5117 67.1172 52.3438 67.1172C50.1641 67.1172 48.5938 65.4414 48.5938 62.7578C48.5938 60.0742 50.1641 58.3984 52.3438 58.3984C54.5117 58.3984 56.0938 60.0742 56.0938 62.7578ZM55.0742 62.7578C55.0742 60.5664 53.8789 59.3828 52.3438 59.3828C50.8086 59.3828 49.6133 60.5664 49.6133 62.7578C49.6133 64.9492 50.8086 66.1328 52.3438 66.1328C53.8789 66.1328 55.0742 64.9492 55.0742 62.7578ZM57.6406 67V58.5156H60.5234C62.5156 58.5156 63.418 59.6992 63.418 61.2109C63.418 62.7109 62.5156 63.918 60.5352 63.918H58.6953V67H57.6406ZM58.6953 62.9805H60.4883C61.8359 62.9805 62.375 62.2188 62.375 61.2109C62.375 60.1914 61.8359 59.4531 60.4766 59.4531H58.6953V62.9805Z" fill="#191919"/>
</g>
<defs>
<filter id="filter0_d_312_6904" x="0" y="0" width="104" height="104" filterUnits="userSpaceOnUse" color-interpolation-filters="sRGB">
<feFlood flood-opacity="0" result="BackgroundImageFix"/>
<feColorMatrix in="SourceAlpha" type="matrix" values="0 0 0 0 0 0 0 0 0 0 0 0 0 0 0 0 0 0 127 0" result="hardAlpha"/>
<feOffset dy="6"/>
<feGaussianBlur stdDeviation="6"/>
<feComposite in2="hardAlpha" operator="out"/>
<feColorMatrix type="matrix" values="0 0 0 0 0 0 0 0 0 0 0 0 0 0 0 0 0 0 0.12 0"/>
<feBlend mode="normal" in2="BackgroundImageFix" result="effect1_dropShadow_312_6904"/>
<feBlend mode="normal" in="SourceGraphic" in2="effect1_dropShadow_312_6904" result="shape"/>
</filter>
</defs>
</svg>
