<svg width="24" height="24" viewBox="0 0 24 24" fill="none" xmlns="http://www.w3.org/2000/svg">
<path d="M14.25 13.5C15.6424 13.5 16.9773 14.0535 17.9619 15.0381C18.9465 16.0227 19.5 17.3576 19.5 18.75V22.5H18V18.75C18 18.2575 17.9033 17.7694 17.7148 17.3145C17.5264 16.8596 17.2495 16.4468 16.9014 16.0986C16.5532 15.7505 16.1404 15.4736 15.6855 15.2852C15.2306 15.0967 14.7425 15 14.25 15H9.75C8.75544 15 7.80189 15.3954 7.09863 16.0986C6.39537 16.8019 6 17.7554 6 18.75V22.5H4.5V18.75C4.5 17.3576 5.05352 16.0227 6.03809 15.0381C7.02265 14.0535 8.35761 13.5 9.75 13.5H14.25ZM12 1.5C13.3924 1.5 14.7273 2.05352 15.7119 3.03809C16.6965 4.02265 17.25 5.35761 17.25 6.75C17.25 7.78835 16.9421 8.80363 16.3652 9.66699C15.7884 10.5303 14.968 11.2033 14.0088 11.6006C13.0496 11.9978 11.9939 12.102 10.9756 11.8994C9.95724 11.6968 9.02228 11.1961 8.28809 10.4619C7.55389 9.72772 7.05317 8.79276 6.85059 7.77441C6.64804 6.75613 6.75217 5.70043 7.14941 4.74121C7.54675 3.78196 8.21973 2.96164 9.08301 2.38477C9.94637 1.80789 10.9616 1.5 12 1.5ZM12 3C11.0054 3 10.0519 3.39537 9.34863 4.09863C8.64537 4.80189 8.25 5.75544 8.25 6.75C8.25 7.49155 8.46992 8.2164 8.88184 8.83301C9.29383 9.4496 9.87936 9.931 10.5645 10.2148C11.2496 10.4987 12.004 10.5724 12.7314 10.4277C13.4589 10.283 14.1269 9.92581 14.6514 9.40137C15.1758 8.87692 15.533 8.20887 15.6777 7.48145C15.8224 6.75405 15.7487 5.99965 15.4648 5.31445C15.181 4.62936 14.6996 4.04383 14.083 3.63184C13.4664 3.21992 12.7415 3 12 3Z" fill="#191919"/>
</svg>
