<svg width="23" height="45" viewBox="0 0 23 45" fill="none" xmlns="http://www.w3.org/2000/svg">
<path fill-rule="evenodd" clip-rule="evenodd" d="M17.1251 39.375C17.1251 40.8668 16.5325 42.2976 15.4776 43.3525C14.4227 44.4074 12.992 45 11.5001 45C10.0083 45 8.57753 44.4074 7.52264 43.3525C6.46775 42.2976 5.87512 40.8668 5.87512 39.375C5.87512 37.8832 6.46775 36.4524 7.52264 35.3975C8.57753 34.3426 10.0083 33.75 11.5001 33.75C12.992 33.75 14.4227 34.3426 15.4776 35.3975C16.5325 36.4524 17.1251 37.8832 17.1251 39.375ZM22.1314 14.5097C21.7359 14.1147 21.1997 13.8928 20.6407 13.8928C20.0818 13.8928 19.5456 14.1147 19.1501 14.5097L13.6095 20.0503V2.10938C13.6095 1.54993 13.3873 1.01341 12.9917 0.617822C12.5961 0.222237 12.0596 0 11.5001 0C10.9407 0 10.4041 0.222237 10.0086 0.617822C9.61298 1.01341 9.39074 1.54993 9.39074 2.10938V20.0503L3.85012 14.5097C3.45025 14.1371 2.92137 13.9342 2.3749 13.9439C1.82843 13.9535 1.30703 14.1749 0.920556 14.5614C0.534082 14.9479 0.312705 15.4692 0.303063 16.0157C0.293421 16.5622 0.496267 17.0911 0.868867 17.4909L10.0095 26.6316L11.5001 28.125L12.9907 26.6344L22.1314 17.4937C22.3274 17.2979 22.4829 17.0653 22.589 16.8093C22.6951 16.5532 22.7497 16.2788 22.7497 16.0017C22.7497 15.7246 22.6951 15.4502 22.589 15.1942C22.4829 14.9382 22.3274 14.7056 22.1314 14.5097Z" fill="black"/>
</svg>
