<svg width="25" height="26" viewBox="0 0 25 26" fill="none" xmlns="http://www.w3.org/2000/svg">
<path d="M22.4903 21.5293L18.6731 17.743C20.1548 15.8955 20.8724 13.5506 20.6782 11.1903C20.4841 8.83005 19.393 6.63387 17.6293 5.05336C15.8657 3.47285 13.5635 2.62814 11.1961 2.69292C8.82878 2.7577 6.57623 3.72704 4.90164 5.40164C3.22704 7.07623 2.2577 9.32879 2.19292 11.6961C2.12814 14.0635 2.97285 16.3657 4.55336 18.1293C6.13387 19.893 8.33005 20.9841 10.6903 21.1782C13.0506 21.3724 15.3955 20.6548 17.243 19.1731L21.0293 22.9594C21.1249 23.0559 21.2387 23.1324 21.3641 23.1846C21.4895 23.2369 21.6239 23.2638 21.7598 23.2638C21.8956 23.2638 22.0301 23.2369 22.1555 23.1846C22.2808 23.1324 22.3946 23.0559 22.4903 22.9594C22.6757 22.7676 22.7794 22.5112 22.7794 22.2443C22.7794 21.9775 22.6757 21.7211 22.4903 21.5293ZM11.4709 19.1731C10.0465 19.1731 8.65399 18.7507 7.4696 17.9593C6.2852 17.1679 5.36208 16.0431 4.81696 14.7271C4.27184 13.4111 4.12922 11.9629 4.40712 10.5658C4.68501 9.16876 5.37096 7.88545 6.3782 6.8782C7.38545 5.87096 8.66875 5.18501 10.0658 4.90712C11.4629 4.62922 12.9111 4.77184 14.2271 5.31696C15.5431 5.86208 16.6679 6.7852 17.4593 7.9696C18.2507 9.15399 18.6731 10.5465 18.6731 11.9709C18.6731 13.8811 17.9143 15.713 16.5636 17.0636C15.213 18.4143 13.3811 19.1731 11.4709 19.1731Z" fill="#808080"/>
</svg>
