<svg width="24" height="24" viewBox="0 0 24 24" fill="none" xmlns="http://www.w3.org/2000/svg">
<rect width="24" height="24" fill="white" fill-opacity="0.01" style="mix-blend-mode:multiply"/>
<path d="M12.75 1.5H11.25V5.22H12.75V1.5Z" fill="#191919"/>
<path d="M18.8955 4.03757L16.265 6.66801L17.3257 7.72867L19.9561 5.09823L18.8955 4.03757Z" fill="#191919"/>
<path d="M22.5 11.25H18.78V12.75H22.5V11.25Z" fill="#191919"/>
<path d="M17.3301 16.267L16.2694 17.3276L18.8998 19.958L19.9605 18.8974L17.3301 16.267Z" fill="#191919"/>
<path d="M12.75 18.78H11.25V22.5H12.75V18.78Z" fill="#191919"/>
<path d="M6.67795 16.2713L4.04751 18.9018L5.10817 19.9624L7.73861 17.332L6.67795 16.2713Z" fill="#191919"/>
<path d="M5.22 11.25H1.5V12.75H5.22V11.25Z" fill="#191919"/>
<path d="M5.10379 4.04195L4.04313 5.10261L6.67357 7.73305L7.73423 6.67239L5.10379 4.04195Z" fill="#191919"/>
<path d="M12 9C12.5933 9 13.1734 9.17595 13.6667 9.50559C14.1601 9.83524 14.5446 10.3038 14.7716 10.8519C14.9987 11.4001 15.0581 12.0033 14.9424 12.5853C14.8266 13.1672 14.5409 13.7018 14.1213 14.1213C13.7018 14.5409 13.1672 14.8266 12.5853 14.9424C12.0033 15.0581 11.4001 14.9987 10.8519 14.7716C10.3038 14.5446 9.83524 14.1601 9.50559 13.6667C9.17595 13.1734 9 12.5933 9 12C9 11.2044 9.31607 10.4413 9.87868 9.87868C10.4413 9.31607 11.2044 9 12 9ZM12 7.5C11.11 7.5 10.24 7.76392 9.49993 8.25839C8.75991 8.75285 8.18314 9.45566 7.84254 10.2779C7.50195 11.1002 7.41283 12.005 7.58647 12.8779C7.7601 13.7508 8.18868 14.5526 8.81802 15.182C9.44736 15.8113 10.2492 16.2399 11.1221 16.4135C11.995 16.5872 12.8998 16.4981 13.7221 16.1575C14.5443 15.8169 15.2471 15.2401 15.7416 14.5001C16.2361 13.76 16.5 12.89 16.5 12C16.5 10.8065 16.0259 9.66193 15.182 8.81802C14.3381 7.97411 13.1935 7.5 12 7.5Z" fill="#191919"/>
</svg>
