<svg width="20" height="20" viewBox="0 0 20 20" fill="none" xmlns="http://www.w3.org/2000/svg">
<rect width="20" height="20" fill="white" fill-opacity="0.01" style="mix-blend-mode:multiply"/>
<path d="M15 10.625L16.195 12.9394L18.75 13.3106L16.875 15L17.3569 17.5L15 16.0938L12.6431 17.5L13.125 15L11.25 13.3106L13.875 12.9394L15 10.625Z" fill="#BBBBBB"/>
<path d="M7.5 10H3.75V11.25H7.5V10Z" fill="#BBBBBB"/>
<path d="M10 7.5H3.75V8.75H10V7.5Z" fill="#BBBBBB"/>
<path d="M10 5H3.75V6.25H10V5Z" fill="#BBBBBB"/>
<path d="M10 16.25H2.5V3.75H17.5V10H18.75V3.75C18.75 3.41848 18.6183 3.10054 18.3839 2.86612C18.1495 2.6317 17.8315 2.5 17.5 2.5H2.5C2.16848 2.5 1.85054 2.6317 1.61612 2.86612C1.3817 3.10054 1.25 3.41848 1.25 3.75V16.25C1.25 16.5815 1.3817 16.8995 1.61612 17.1339C1.85054 17.3683 2.16848 17.5 2.5 17.5H10V16.25Z" fill="#BBBBBB"/>
</svg>
