<svg width="20" height="20" viewBox="0 0 20 20" fill="none" xmlns="http://www.w3.org/2000/svg">
<rect width="20" height="20" fill="white" fill-opacity="0.01" style="mix-blend-mode:multiply"/>
<path d="M10 11.875C9.27809 11.8756 8.56727 11.6973 7.93109 11.3561C7.29491 11.0149 6.7532 10.5213 6.35437 9.91956L7.39563 9.22744C7.68073 9.65717 8.06775 10.0097 8.52217 10.2535C8.97659 10.4974 9.48429 10.625 10 10.625C10.5157 10.625 11.0234 10.4974 11.4778 10.2535C11.9322 10.0097 12.3193 9.65717 12.6044 9.22744L13.6456 9.91956C13.2468 10.5213 12.7051 11.0149 12.0689 11.3561C11.4327 11.6973 10.7219 11.8756 10 11.875Z" fill="#BBBBBB"/>
<path d="M12.5 5C12.2528 5 12.0111 5.07331 11.8055 5.21066C11.6 5.34802 11.4398 5.54324 11.3451 5.77165C11.2505 6.00005 11.2258 6.25139 11.274 6.49386C11.3222 6.73634 11.4413 6.95907 11.6161 7.13388C11.7909 7.3087 12.0137 7.42775 12.2561 7.47598C12.4986 7.52421 12.7499 7.49946 12.9784 7.40485C13.2068 7.31024 13.402 7.15002 13.5393 6.94446C13.6767 6.7389 13.75 6.49723 13.75 6.25C13.7516 6.0854 13.7204 5.92212 13.6582 5.76974C13.5959 5.61735 13.5039 5.4789 13.3875 5.36251C13.2711 5.24611 13.1327 5.15409 12.9803 5.09185C12.8279 5.02961 12.6646 4.99838 12.5 5Z" fill="#BBBBBB"/>
<path d="M7.5 5C7.25277 5 7.0111 5.07331 6.80554 5.21066C6.59998 5.34802 6.43976 5.54324 6.34515 5.77165C6.25054 6.00005 6.22579 6.25139 6.27402 6.49386C6.32225 6.73634 6.4413 6.95907 6.61612 7.13388C6.79093 7.3087 7.01366 7.42775 7.25614 7.47598C7.49861 7.52421 7.74995 7.49946 7.97835 7.40485C8.20676 7.31024 8.40199 7.15002 8.53934 6.94446C8.67669 6.7389 8.75 6.49723 8.75 6.25C8.75162 6.0854 8.7204 5.92212 8.65815 5.76974C8.59591 5.61735 8.50389 5.4789 8.3875 5.36251C8.2711 5.24611 8.13265 5.15409 7.98026 5.09185C7.82788 5.02961 7.6646 4.99838 7.5 5Z" fill="#BBBBBB"/>
<path d="M11.0849 18.75L10 18.125L12.5 13.75H16.25C16.4142 13.7503 16.5769 13.7181 16.7287 13.6554C16.8805 13.5927 17.0184 13.5006 17.1345 13.3845C17.2506 13.2684 17.3427 13.1305 17.4054 12.9787C17.4681 12.8269 17.5003 12.6642 17.5 12.5V3.75C17.5003 3.58577 17.4681 3.4231 17.4054 3.27131C17.3427 3.11953 17.2506 2.98162 17.1345 2.86549C17.0184 2.74936 16.8805 2.6573 16.7287 2.59458C16.5769 2.53186 16.4142 2.49972 16.25 2.5H3.75C3.58577 2.49972 3.4231 2.53186 3.27131 2.59458C3.11953 2.6573 2.98162 2.74936 2.86549 2.86549C2.74936 2.98162 2.6573 3.11953 2.59458 3.27131C2.53186 3.4231 2.49972 3.58577 2.5 3.75V12.5C2.49972 12.6642 2.53186 12.8269 2.59458 12.9787C2.6573 13.1305 2.74936 13.2684 2.86549 13.3845C2.98162 13.5006 3.11953 13.5927 3.27131 13.6554C3.4231 13.7181 3.58577 13.7503 3.75 13.75H9.375V15H3.75C3.42168 15.0001 3.09656 14.9354 2.79322 14.8098C2.48988 14.6842 2.21426 14.5001 1.98211 14.2679C1.74995 14.0357 1.5658 13.7601 1.44018 13.4568C1.31457 13.1534 1.24994 12.8283 1.25 12.5V3.75C1.2499 3.42167 1.3145 3.09653 1.4401 2.79318C1.5657 2.48982 1.74985 2.21418 1.98201 1.98201C2.21418 1.74985 2.48982 1.5657 2.79318 1.4401C3.09653 1.3145 3.42167 1.2499 3.75 1.25H16.25C16.5783 1.2499 16.9035 1.3145 17.2068 1.4401C17.5102 1.5657 17.7858 1.74985 18.018 1.98201C18.2502 2.21418 18.4343 2.48982 18.5599 2.79318C18.6855 3.09653 18.7501 3.42167 18.75 3.75V12.5C18.7501 12.8283 18.6854 13.1534 18.5598 13.4568C18.4342 13.7601 18.2501 14.0357 18.0179 14.2679C17.7857 14.5001 17.5101 14.6842 17.2068 14.8098C16.9034 14.9354 16.5783 15.0001 16.25 15H13.2279L11.0849 18.75Z" fill="#BBBBBB"/>
</svg>
