<svg width="20" height="20" viewBox="0 0 20 20" fill="none" xmlns="http://www.w3.org/2000/svg">
<path d="M11.875 11.25C13.0353 11.25 14.1483 11.7108 14.9688 12.5312C15.7892 13.3517 16.25 14.4647 16.25 15.625V18.75H15V15.625C15 15.2146 14.9188 14.8079 14.7617 14.4287C14.6047 14.0498 14.375 13.7051 14.085 13.415C13.7949 13.125 13.4502 12.8953 13.0713 12.7383C12.6921 12.5812 12.2854 12.5 11.875 12.5H8.125C7.2962 12.5 6.50109 12.829 5.91504 13.415C5.32899 14.0011 5 14.7962 5 15.625V18.75H3.75V15.625C3.75 14.4647 4.21078 13.3517 5.03125 12.5312C5.85172 11.7108 6.96468 11.25 8.125 11.25H11.875ZM10 1.25C11.1603 1.25 12.2733 1.71078 13.0938 2.53125C13.9142 3.35172 14.375 4.46468 14.375 5.625C14.375 6.49029 14.1184 7.3362 13.6377 8.05566C13.157 8.77512 12.4732 9.33586 11.6738 9.66699C10.8745 9.998 9.99502 10.0848 9.14648 9.91602C8.29782 9.74721 7.5181 9.3306 6.90625 8.71875C6.2944 8.1069 5.87779 7.32718 5.70898 6.47852C5.5402 5.62998 5.627 4.7505 5.95801 3.95117C6.28914 3.15175 6.84988 2.46803 7.56934 1.9873C8.2888 1.50657 9.13471 1.25 10 1.25ZM10 2.5C9.1712 2.5 8.37609 2.82899 7.79004 3.41504C7.20399 4.00109 6.875 4.7962 6.875 5.625C6.875 6.24306 7.05799 6.84743 7.40137 7.36133C7.74465 7.87508 8.2329 8.27517 8.80371 8.51172C9.37462 8.7482 10.0033 8.81091 10.6094 8.69043C11.2156 8.56985 11.7729 8.272 12.21 7.83496C12.647 7.39792 12.9449 6.84057 13.0654 6.23438C13.1859 5.6283 13.1232 4.99962 12.8867 4.42871C12.6502 3.8579 12.2501 3.36965 11.7363 3.02637C11.2224 2.68299 10.6181 2.5 10 2.5Z" fill="#BBBBBB"/>
</svg>
